<svg width="81" height="80" viewBox="0 0 81 80" fill="none" xmlns="http://www.w3.org/2000/svg">
<path d="M23.1232 61.4299L13.2227 71.3838V79.1514H67.7737V71.686L57.5531 61.4299H23.1232Z" fill="#E8E8E8"/>
<path d="M23.3208 56.5597C18.8238 46.2859 11.8916 36.012 7.39453 25.7381L12.2115 23.0364L25.7026 34.0212L27.0535 11.6782H32.2615L40.9357 31.1417L49.2188 11.6782H55.1911L57.1108 34.1279L69.4465 23.0541L74.459 25.7559L57.6618 56.5775H23.3208V56.5597Z" fill="#E8E8E8"/>
<path d="M6.55892 26.609C10.1813 26.609 13.1178 23.6725 13.1178 20.0501C13.1178 16.4277 10.1813 13.4912 6.55892 13.4912C2.93653 13.4912 0 16.4277 0 20.0501C0 23.6725 2.93653 26.609 6.55892 26.609Z" fill="#E8E8E8"/>
<path d="M52.9339 13.1178C56.5563 13.1178 59.4928 10.1813 59.4928 6.55892C59.4928 2.93653 56.5563 0 52.9339 0C49.3115 0 46.375 2.93653 46.375 6.55892C46.375 10.1813 49.3115 13.1178 52.9339 13.1178Z" fill="#E8E8E8"/>
<path d="M28.5648 13.1178C32.1872 13.1178 35.1237 10.1813 35.1237 6.55892C35.1237 2.93653 32.1872 0 28.5648 0C24.9424 0 22.0059 2.93653 22.0059 6.55892C22.0059 10.1813 24.9424 13.1178 28.5648 13.1178Z" fill="#E8E8E8"/>
<path d="M74.4398 26.609C78.0622 26.609 80.9987 23.6725 80.9987 20.0501C80.9987 16.4277 78.0622 13.4912 74.4398 13.4912C70.8174 13.4912 67.8809 16.4277 67.8809 20.0501C67.8809 23.6725 70.8174 26.609 74.4398 26.609Z" fill="#E8E8E8"/>
<path d="M23.3225 56.5596L23.3047 61.4299H57.5568L57.6635 56.5596H23.3225Z" fill="#E8E8E8"/>
</svg>
