<svg width="174" height="215" viewBox="0 0 174 215" fill="none" xmlns="http://www.w3.org/2000/svg">
<path d="M24.3884 112.83C13.4131 113.067 3.85692 106.585 0.923855 97.5024C-2.38768 87.142 4.23538 77.8224 4.66115 77.3021C6.97922 74.2271 9.62845 72.3821 11.3788 71.294C24.1046 62.8259 36.8303 54.3106 49.556 45.8425C51.2591 44.7545 53.9556 43.0041 57.0306 40.5914C61.3829 37.2326 64.2687 34.3941 65.4987 33.2114C69.2833 29.5687 78.2717 20.9587 84.2325 18.4987C97.9517 12.8218 117.584 30.4203 121.416 33.8737C149.564 59.0413 149.233 96.982 149.138 101.997C148.855 113.209 148.145 123.143 146.111 129.388C142.137 142.918 136.838 155.785 132.912 169.315C102.446 169.978 71.7906 170.593 41.3245 171.255C41.8922 166.571 43.3587 159.854 47.3326 152.947C52.6783 143.627 60.3895 138.897 64.7891 133.835C70.7498 127.022 75.386 119.027 77.7513 103.889H33.8026L24.3884 112.83Z" fill="#222831"/>
<path d="M140.198 39.8346C141.948 33.59 143.699 27.3454 145.449 21.1008C155.999 34.4416 172.367 59.6092 173.881 92.2514C174.78 111.458 170.38 129.766 168.535 137.383C165.129 151.622 160.587 163.118 156.897 171.444C156.756 171.444 148.335 171.444 148.193 171.444C145.26 171.397 142.327 171.302 139.488 171.444C141.948 167.565 144.266 162.409 147.199 156.022C153.16 143.06 155.762 131.942 156.897 126.029C157.891 120.967 160.587 110.228 159.736 93.9072C158.364 69.4019 147.578 50.7627 140.198 39.8346Z" fill="#222831"/>
<path d="M110.252 29.3794C117.159 20.0125 129.033 8.98989 132.723 10.6457C136.791 12.4433 132.203 28.8591 127.472 44.3286C121.748 39.3613 115.976 34.3467 110.252 29.3794Z" fill="#222831"/>
<path d="M87.7804 6.15151C88.0643 2.50883 98.6612 0.521913 104.243 0.143452C106.656 0.00152952 117.158 -0.70809 118.483 3.12382C119.571 6.24612 114.367 11.7338 108.738 13.6261C99.2762 16.7957 87.4966 10.1253 87.7804 6.15151Z" fill="#222831"/>
<path d="M41.9406 167.802L15.543 194.294V214.967H160.73V195.098L133.575 167.802H41.9406Z" fill="#222831"/>
</svg>
