<svg width="186" height="216" viewBox="0 0 186 216" fill="none" xmlns="http://www.w3.org/2000/svg">
<path d="M46.9395 168.145L20.5352 194.691V215.407H165.972V195.497L138.762 168.145H46.9395Z" fill="#222831"/>
<path d="M92.4007 53.0939C87.4232 42.5227 82.4457 31.9515 77.4208 21.3803C76.7572 19.816 75.9987 17.2562 76.3305 14.2697C77.1838 7.159 84.0575 -0.0938894 92.7325 0.000919527C101.55 0.0957285 108.66 7.82266 108.755 14.9807C108.803 17.6828 107.807 19.9108 106.954 21.3803C102.166 31.9515 97.2833 42.5227 92.4007 53.0939Z" fill="#222831"/>
<path d="M145.398 155.677C157.866 140.223 167.489 127.661 179.956 112.207C180.904 109.932 192.092 86.1823 179.956 65.5614C179.387 64.5659 166.683 43.8027 141.843 41.7169C122.218 40.0578 102.971 50.6764 92.6847 68.7849C83.9623 51.1978 65.7115 40.3896 46.3705 41.3377C25.1807 42.3806 8.58914 57.313 2.56878 74.8053C-3.5464 92.5819 2.94801 108.225 4.70198 112.207C16.4583 126.334 28.2146 140.934 39.9709 155.061L46.9394 168.145H138.762L145.398 155.677ZM72.8696 134.156C72.443 134.962 71.1631 135.293 69.978 135.056C68.0344 134.63 66.8493 133.018 65.6641 130.363C64.6212 127.946 63.768 127.282 62.8199 122.589C61.8718 117.896 61.3977 117.801 59.9756 114.625C58.3639 111.022 57.558 109.6 56.4203 107.609C53.8604 103.106 51.7272 96.8483 53.9078 93.9093C54.9033 92.5345 56.7521 92.6768 56.8943 92.7242C63.6257 95.284 67.4181 104.386 70.3572 110.785C74.0547 118.702 76.0457 127.993 72.8696 134.156ZM129.471 107.609C128.333 109.6 127.527 111.022 125.915 114.625C124.493 117.801 124.019 117.896 123.071 122.589C122.123 127.282 121.27 127.946 120.227 130.363C119.042 133.018 117.856 134.677 115.913 135.056C114.728 135.293 113.448 134.962 113.021 134.156C109.845 127.993 111.789 118.749 115.486 110.785C118.473 104.386 122.218 95.284 128.949 92.7242C129.091 92.6768 130.94 92.5345 131.936 93.9093C134.164 96.8483 132.03 103.058 129.471 107.609Z" fill="#222831"/>
</svg>
