<svg width="221" height="216" viewBox="0 0 221 216" fill="none" xmlns="http://www.w3.org/2000/svg">
<path d="M62.8554 166.98L35.9434 194.037V215.152H184.225V194.859L156.444 166.98H62.8554Z" fill="#E8E8E8"/>
<path d="M63.3928 153.742C51.1688 125.816 32.3255 97.8888 20.1016 69.9622L33.1952 62.6181L69.8671 92.4774L73.5391 31.7441H87.6957L111.274 84.6502L133.789 31.7441H150.023L155.242 92.7673L188.773 62.6664L202.398 70.0105L156.739 153.791H63.3928V153.742Z" fill="#E8E8E8"/>
<path d="M17.8286 72.3286C27.6751 72.3286 35.6573 64.3465 35.6573 54.5C35.6573 44.6535 27.6751 36.6714 17.8286 36.6714C7.98215 36.6714 0 44.6535 0 54.5C0 64.3465 7.98215 72.3286 17.8286 72.3286Z" fill="#E8E8E8"/>
<path d="M143.885 35.6573C153.732 35.6573 161.714 27.6751 161.714 17.8286C161.714 7.98215 153.732 0 143.885 0C134.039 0 126.057 7.98215 126.057 17.8286C126.057 27.6751 134.039 35.6573 143.885 35.6573Z" fill="#E8E8E8"/>
<path d="M77.647 35.6573C87.4935 35.6573 95.4756 27.6751 95.4756 17.8286C95.4756 7.98215 87.4935 0 77.647 0C67.8005 0 59.8184 7.98215 59.8184 17.8286C59.8184 27.6751 67.8005 35.6573 77.647 35.6573Z" fill="#E8E8E8"/>
<path d="M202.344 72.3286C212.191 72.3286 220.173 64.3465 220.173 54.5C220.173 44.6535 212.191 36.6714 202.344 36.6714C192.498 36.6714 184.516 44.6535 184.516 54.5C184.516 64.3465 192.498 72.3286 202.344 72.3286Z" fill="#E8E8E8"/>
<path d="M63.396 153.742L63.3477 166.98H156.453L156.743 153.742H63.396Z" fill="#E8E8E8"/>
</svg>
