<svg width="142" height="216" viewBox="0 0 142 216" fill="none" xmlns="http://www.w3.org/2000/svg">
<path d="M70.3145 80.5703C92.5633 80.5703 110.6 62.534 110.6 40.2852C110.6 18.0363 92.5633 0 70.3145 0C48.0656 0 30.0293 18.0363 30.0293 40.2852C30.0293 62.534 48.0656 80.5703 70.3145 80.5703Z" fill="#222831"/>
<path d="M25.712 169.309L0 195.16V215.303H141.462V195.949L114.961 169.309H25.712Z" fill="#222831"/>
<path d="M94.3089 92.4051H47.1548C41.539 92.4051 37.0371 87.8567 37.0371 82.2874C37.0371 76.6716 41.5854 72.1697 47.1548 72.1697H94.3553C99.9711 72.1697 104.473 76.718 104.473 82.2874C104.473 87.8567 99.9246 92.4051 94.3089 92.4051Z" fill="#222831"/>
<path d="M33.7421 156.685H106.933C106.933 156.685 106.933 156.685 96.9081 128.745C86.8832 100.806 94.0306 92.4053 94.0306 92.4053H46.6445C46.6445 92.4053 53.7454 100.852 43.767 128.745C33.7421 156.685 33.7421 156.685 33.7421 156.685H106.933L114.962 169.309H25.7129L33.7421 156.685Z" fill="#222831"/>
</svg>
